# xmcd CD database file
#
# Track frame offsets:
#	150
#	26615
#	51257
#	72245
#	93895
#	108615
#	128260
#	146995
#	168422
#	189317
#	205645
#
# Disc length: 2826 seconds
#
# Revision: 0
# Processed by: cddbd v1.5PL3 Copyright (c) Steve Scherf et al.
# Submitted via: CDex 1.50beta9
#
DISCID=940b080b
DTITLE=TSUNEMATSU MATSUI - あの頃 僕らは
DYEAR=1993
DGENRE=Rock
TTITLE0=VOICE
TTITLE1=あの頃 僕らは
TTITLE2=シーラカンスの丘
TTITLE3=離れていても
TTITLE4=あしたは日曜日
TTITLE5=Do what you want
TTITLE6=ILLOGIC
TTITLE7=SUNSET
TTITLE8=眠れない夜に
TTITLE9=時の渚
TTITLE10=あの頃 僕らは (REPRISE)
EXTD=YEAR: 1993
EXTT0=
EXTT1=
EXTT2=
EXTT3=
EXTT4=
EXTT5=
EXTT6=
EXTT7=
EXTT8=
EXTT9=
EXTT10=
PLAYORDER=
